<svg width="24" height="24" viewBox="0 0 24 24" fill="none" xmlns="http://www.w3.org/2000/svg">
<path d="M22.875 10.875V8.25C22.875 7.75272 22.6775 7.27581 22.3258 6.92417C21.9742 6.57254 21.4973 6.375 21 6.375H19.5V6C19.5 5.50272 19.3025 5.02581 18.9508 4.67417C18.5992 4.32254 18.1223 4.125 17.625 4.125H15.375C14.8777 4.125 14.4008 4.32254 14.0492 4.67417C13.6975 5.02581 13.5 5.50272 13.5 6V10.875H10.5V6C10.5 5.50272 10.3025 5.02581 9.95082 4.67417C9.59919 4.32254 9.12228 4.125 8.625 4.125H6.375C5.87772 4.125 5.40081 4.32254 5.04917 4.67417C4.69754 5.02581 4.5 5.50272 4.5 6V6.375H3C2.50272 6.375 2.02581 6.57254 1.67417 6.92417C1.32254 7.27581 1.125 7.75272 1.125 8.25V10.875C0.826631 10.875 0.540483 10.9935 0.329505 11.2045C0.118526 11.4155 0 11.7016 0 12C0 12.2984 0.118526 12.5845 0.329505 12.7955C0.540483 13.0065 0.826631 13.125 1.125 13.125V15.75C1.125 16.2473 1.32254 16.7242 1.67417 17.0758C2.02581 17.4275 2.50272 17.625 3 17.625H4.5V18C4.5 18.4973 4.69754 18.9742 5.04917 19.3258C5.40081 19.6775 5.87772 19.875 6.375 19.875H8.625C9.12228 19.875 9.59919 19.6775 9.95082 19.3258C10.3025 18.9742 10.5 18.4973 10.5 18V13.125H13.5V18C13.5 18.4973 13.6975 18.9742 14.0492 19.3258C14.4008 19.6775 14.8777 19.875 15.375 19.875H17.625C18.1223 19.875 18.5992 19.6775 18.9508 19.3258C19.3025 18.9742 19.5 18.4973 19.5 18V17.625H21C21.4973 17.625 21.9742 17.4275 22.3258 17.0758C22.6775 16.7242 22.875 16.2473 22.875 15.75V13.125C23.1734 13.125 23.4595 13.0065 23.6705 12.7955C23.8815 12.5845 24 12.2984 24 12C24 11.7016 23.8815 11.4155 23.6705 11.2045C23.4595 10.9935 23.1734 10.875 22.875 10.875ZM3.375 15.375V8.625H4.5V15.375H3.375ZM8.25 17.625H6.75V6.375H8.25V17.625ZM17.25 17.625H15.75V6.375H17.25V17.625ZM20.625 15.375H19.5V8.625H20.625V15.375Z" fill="#484C52"/>
</svg>
