<svg width="35" height="35" viewBox="0 0 35 35" fill="none" xmlns="http://www.w3.org/2000/svg">
<path fill-rule="evenodd" clip-rule="evenodd" d="M10.5506 31.7687C10.4244 31.76 10.2981 31.7531 10.1725 31.7419C9.46625 31.6756 8.81813 31.445 8.24312 31.0294C7.25125 30.3106 6.61687 29.355 6.36437 28.1531C6.27266 27.7034 6.24176 27.2435 6.2725 26.7856C6.30664 26.249 6.41129 25.7193 6.58375 25.21C6.85813 24.3925 7.27125 23.6506 7.79437 22.9669C8.1883 22.4541 8.63421 21.9835 9.125 21.5625C9.58241 21.1647 10.0069 20.7306 10.3944 20.2644C10.8869 19.68 11.3319 19.0606 11.7725 18.4369C12.1613 17.8856 12.5437 17.3306 12.9562 16.7981C13.2629 16.3934 13.5981 16.0112 13.9594 15.6544C14.4156 15.2125 14.9194 14.8387 15.5131 14.5956C15.9547 14.4146 16.426 14.3167 16.9031 14.3069C17.4455 14.2935 17.9874 14.3509 18.515 14.4775C19.3116 14.6719 20.0422 15.0746 20.6319 15.6444C21.0456 16.0381 21.3956 16.4844 21.7206 16.9506C22.0662 17.4456 22.3831 17.9587 22.71 18.4656C23.0787 19.0362 23.46 19.5981 23.885 20.1294C24.3078 20.6582 24.7767 21.1485 25.2863 21.5944C25.9034 22.1305 26.4515 22.7412 26.9181 23.4125C27.3183 23.9866 27.6376 24.6131 27.8669 25.2744C28.0455 25.7897 28.1515 26.3273 28.1819 26.8719C28.2256 27.7044 28.0819 28.5006 27.7038 29.2494C27.3538 29.9431 26.8475 30.5012 26.2125 30.9431C25.745 31.2687 25.2406 31.5162 24.6856 31.6537C24.4891 31.7034 24.2892 31.7383 24.0875 31.7581C24.0596 31.761 24.0321 31.7652 24.005 31.7706C23.9788 31.785 23.95 31.7737 23.9219 31.7769C23.8988 31.7806 23.875 31.7706 23.8531 31.7844H23.3356C23.315 31.77 23.2919 31.78 23.27 31.7775H23.1606C22.7194 31.7631 22.2912 31.6712 21.8637 31.5719C21.1406 31.4031 20.4312 31.1812 19.7113 30.9981C19.1301 30.8457 18.5391 30.7333 17.9425 30.6619C17.529 30.6181 17.1129 30.6051 16.6975 30.6231C16.3663 30.6344 16.0363 30.6856 15.71 30.7462C15.0662 30.8675 14.4356 31.04 13.8044 31.2125C13.1369 31.3962 12.4694 31.5781 11.7856 31.69C11.5075 31.735 11.2294 31.7737 10.9462 31.7712C10.8881 31.77 10.8306 31.7787 10.7719 31.7775C10.6969 31.7731 10.6237 31.7862 10.55 31.7694M23.3063 3.13811C24.2362 3.24999 24.9475 3.72311 25.4906 4.46874C25.8625 4.97999 26.0969 5.55374 26.2419 6.16686C26.3635 6.69318 26.415 7.23328 26.395 7.77311C26.3644 8.75893 26.1259 9.72717 25.695 10.6144C25.4024 11.2347 25.0035 11.7991 24.5163 12.2819C24.0769 12.7119 23.58 13.0556 23 13.27C22.5925 13.42 22.1737 13.495 21.74 13.4687C20.9888 13.4256 20.3506 13.1269 19.815 12.6056C19.3575 12.1606 19.0462 11.6219 18.8306 11.0262C18.6826 10.6107 18.584 10.1792 18.5369 9.74061C18.5026 9.44066 18.49 9.13862 18.4994 8.83686C18.5219 8.12519 18.649 7.43311 18.8806 6.76061C19.1191 6.04765 19.4806 5.38196 19.9487 4.79374C20.3487 4.29749 20.8156 3.87749 21.3756 3.56749C21.7826 3.33789 22.2314 3.19211 22.6956 3.13874C22.71 3.13061 22.7256 3.13436 22.74 3.13311H22.7844C22.8063 3.13061 22.8287 3.14061 22.8481 3.12561H23.1531C23.1725 3.14124 23.195 3.13061 23.2162 3.13311H23.2612C23.2756 3.13311 23.2913 3.12999 23.3063 3.13811ZM1.90313 14.125C1.9175 13.8412 1.96875 13.5625 2.04313 13.2881C2.18813 12.755 2.42437 12.2694 2.79312 11.8537C3.18951 11.3953 3.72828 11.0833 4.32312 10.9675C4.81812 10.87 5.30687 10.9112 5.78687 11.06C6.33938 11.23 6.8275 11.52 7.26188 11.8975C7.93563 12.4819 8.41937 13.2012 8.75375 14.0237C8.92875 14.455 9.04979 14.9008 9.11687 15.3612C9.14937 15.5844 9.165 15.8087 9.17 16.035C9.1806 16.4609 9.13307 16.8863 9.02875 17.2994C8.88688 17.8525 8.64813 18.3556 8.26813 18.7869C7.84935 19.2742 7.27051 19.5962 6.63562 19.695C6.15687 19.7725 5.68625 19.72 5.22625 19.5712C4.6075 19.3706 4.07625 19.0256 3.60875 18.5787C3.15853 18.1453 2.78642 17.6374 2.50875 17.0775C2.2313 16.5301 2.04229 15.9422 1.94875 15.3356L1.905 15.0119C1.89375 14.9625 1.89875 14.9119 1.88625 14.8631C1.88062 14.8425 1.88375 14.8231 1.88313 14.8019C1.87938 14.7762 1.89125 14.7481 1.875 14.7225V14.3262C1.9 14.29 1.8875 14.25 1.89 14.2112C1.8925 14.1825 1.885 14.1512 1.90313 14.125ZM8.43625 7.77686C8.43937 6.99061 8.55125 6.28249 8.81437 5.59999C9.0125 5.08436 9.285 4.61311 9.66438 4.20749C10.0725 3.76874 10.5575 3.45499 11.1425 3.30686C11.7275 3.15874 12.3025 3.20061 12.8675 3.40499C13.3656 3.58624 13.8 3.87061 14.1862 4.22999C14.8019 4.80249 15.2425 5.49436 15.5569 6.26999C15.7565 6.7629 15.895 7.27228 15.9725 7.79811C16.0171 8.09603 16.0425 8.39603 16.0487 8.69811C16.0567 9.0783 16.0299 9.45842 15.9688 9.83374C15.8381 10.6187 15.5719 11.35 15.0969 11.9962C14.8091 12.3977 14.4352 12.7298 14.0025 12.9681C13.5214 13.2322 12.9732 13.3487 12.4263 13.3031C11.9225 13.265 11.4575 13.1 11.0244 12.8431C10.4594 12.5087 10.0019 12.0575 9.62062 11.5262C9.17586 10.8984 8.85083 10.1939 8.66188 9.44811C8.55438 9.03872 8.48492 8.62028 8.45438 8.19811C8.44044 8.05814 8.43439 7.91751 8.43625 7.77686ZM33.1238 14.5862V14.6775C33.0894 15.4356 32.8863 16.1487 32.5594 16.8287C32.3043 17.3599 31.9692 17.8488 31.5656 18.2781C31.0438 18.8312 30.4381 19.2631 29.7175 19.5219C29.2908 19.68 28.8364 19.7501 28.3819 19.7281C27.722 19.6998 27.0944 19.4349 26.6138 18.9819C26.2025 18.5994 25.9319 18.1294 25.7606 17.6006C25.6093 17.1289 25.5416 16.6344 25.5606 16.1394C25.5944 15.0444 25.94 14.0494 26.54 13.1387C26.7418 12.8311 26.9747 12.545 27.235 12.285C27.7706 11.7512 28.3831 11.3412 29.1088 11.1081C29.5164 10.9741 29.9463 10.9206 30.3744 10.9506C31.0181 10.9934 31.6262 11.2611 32.0925 11.7069C32.5275 12.1175 32.8025 12.6244 32.9681 13.1944C33.06 13.5087 33.1138 13.8306 33.1244 14.1587V14.2506C33.121 14.3625 33.1204 14.4744 33.1238 14.5862Z" fill="white"/>
</svg>
