<svg width="29" height="27" viewBox="0 0 29 27" fill="none" xmlns="http://www.w3.org/2000/svg">
<path d="M21.1996 8.85938C21.0451 11.0041 19.4541 12.6562 17.7191 12.6562C15.9842 12.6562 14.3905 11.0046 14.2387 8.85938C14.0805 6.62818 15.6293 5.0625 17.7191 5.0625C19.809 5.0625 21.3578 6.66879 21.1996 8.85938Z" stroke="black" stroke-width="2" stroke-linecap="round" stroke-linejoin="round"/>
<path d="M17.7185 16.0312C14.2818 16.0312 10.977 17.7383 10.149 21.0626C10.0394 21.5024 10.3152 21.9375 10.7671 21.9375H24.6705C25.1224 21.9375 25.3967 21.5024 25.2886 21.0626C24.4606 17.685 21.1558 16.0312 17.7185 16.0312Z" stroke="black" stroke-width="2" stroke-miterlimit="10"/>
<path d="M10.5468 9.80543C10.4234 11.5182 9.13777 12.8672 7.75191 12.8672C6.36605 12.8672 5.07827 11.5188 4.95699 9.80543C4.83095 8.02354 6.08234 6.75 7.75191 6.75C9.42148 6.75 10.6729 8.05623 10.5468 9.80543Z" stroke="black" stroke-width="2" stroke-linecap="round" stroke-linejoin="round"/>
<path d="M10.8628 16.1368C9.91097 15.7007 8.86261 15.533 7.75149 15.533C5.0093 15.533 2.36731 16.8961 1.7055 19.5513C1.61848 19.9025 1.83891 20.25 2.19962 20.25H8.12063" stroke="black" stroke-width="2" stroke-miterlimit="10" stroke-linecap="round"/>
<path d="M25.5933 5.28759C25.982 6.33222 26.1823 7.45569 26.1823 8.59083C26.1823 9.72596 25.982 10.8494 25.5933 11.8941C25.5514 12.0064 25.4815 12.1022 25.3923 12.1695C25.3031 12.2369 25.1985 12.2727 25.0916 12.2727C25.0014 12.2728 24.9125 12.2472 24.833 12.1984C24.7535 12.1495 24.6858 12.0789 24.6361 11.9928C24.5864 11.9067 24.5561 11.8078 24.5481 11.7051C24.54 11.6023 24.5544 11.4989 24.59 11.404C24.921 10.5144 25.0917 9.55758 25.0917 8.59083C25.0917 7.62407 24.921 6.66725 24.59 5.77762C24.5331 5.62555 24.5314 5.45389 24.5853 5.30041C24.6392 5.14693 24.7442 5.0242 24.8773 4.95921C25.0103 4.89423 25.1605 4.89232 25.2948 4.9539C25.4291 5.01549 25.5365 5.13552 25.5933 5.28759Z" fill="black"/>
<path d="M28.6363 9.01767C28.6386 10.569 28.4035 12.1046 27.9453 13.5299C27.8917 13.6844 27.7952 13.8049 27.6762 13.8658C27.5572 13.9267 27.4252 13.9233 27.3081 13.8562C27.191 13.7891 27.0981 13.6637 27.049 13.5066C27 13.3494 26.9987 13.1729 27.0454 13.0145C27.4489 11.751 27.657 10.3914 27.657 9.01767C27.657 7.6439 27.4489 6.28433 27.0454 5.02085C27.0179 4.94141 27.0025 4.85538 27.0003 4.76786C26.998 4.68034 27.009 4.59311 27.0324 4.51133C27.0558 4.42955 27.0913 4.3549 27.1367 4.29178C27.1821 4.22866 27.2366 4.17836 27.2968 4.14387C27.357 4.10937 27.4218 4.09138 27.4873 4.09095C27.5528 4.09052 27.6177 4.10768 27.6782 4.14139C27.7387 4.1751 27.7935 4.22469 27.8393 4.28721C27.8852 4.34974 27.9212 4.42393 27.9453 4.5054C28.4035 5.93074 28.6386 7.46632 28.6363 9.01767Z" fill="black"/>
</svg>
